<mxfile host="app.diagrams.net" agent="Mozilla/5.0 (Windows NT 10.0; Win64; x64) AppleWebKit/537.36 (KHTML, like Gecko) Chrome/131.0.0.0 Safari/537.36 Edg/131.0.0.0" version="25.0.3">
  <diagram id="C5RBs43oDa-KdzZeNtuy" name="Page-1">
    <mxGraphModel dx="1917" dy="596" grid="1" gridSize="10" guides="1" tooltips="1" connect="1" arrows="1" fold="1" page="1" pageScale="1" pageWidth="827" pageHeight="1169" math="0" shadow="0">
      <root>
        <mxCell id="WIyWlLk6GJQsqaUBKTNV-0" />
        <mxCell id="WIyWlLk6GJQsqaUBKTNV-1" parent="WIyWlLk6GJQsqaUBKTNV-0" />
        <mxCell id="mvioNwK95yMqdUQ73LqQ-36" value="" style="swimlane;fontFamily=Sarabun;fontSource=https%3A%2F%2Ffonts.googleapis.com%2Fcss%3Ffamily%3DSarabun;" parent="WIyWlLk6GJQsqaUBKTNV-1" vertex="1">
          <mxGeometry x="-740" y="60" width="970" height="1670" as="geometry" />
        </mxCell>
        <mxCell id="JBCHaNcfTczLMrVH9G6V-0" style="edgeStyle=orthogonalEdgeStyle;rounded=0;orthogonalLoop=1;jettySize=auto;html=1;exitX=0.5;exitY=1;exitDx=0;exitDy=0;" parent="mvioNwK95yMqdUQ73LqQ-36" source="mvioNwK95yMqdUQ73LqQ-35" edge="1">
          <mxGeometry relative="1" as="geometry">
            <mxPoint x="320.2758620689656" y="130" as="targetPoint" />
          </mxGeometry>
        </mxCell>
        <mxCell id="mvioNwK95yMqdUQ73LqQ-35" value="&lt;font data-font-src=&quot;https://fonts.googleapis.com/css?family=Sarabun&quot; face=&quot;Sarabun&quot;&gt;Start&lt;/font&gt;" style="ellipse;whiteSpace=wrap;html=1;" parent="mvioNwK95yMqdUQ73LqQ-36" vertex="1">
          <mxGeometry x="255" y="40" width="130" height="30" as="geometry" />
        </mxCell>
        <mxCell id="hHq8Q-hBSi6vS6wMJIax-1" style="edgeStyle=orthogonalEdgeStyle;rounded=0;orthogonalLoop=1;jettySize=auto;html=1;" edge="1" parent="mvioNwK95yMqdUQ73LqQ-36" source="hHq8Q-hBSi6vS6wMJIax-0">
          <mxGeometry relative="1" as="geometry">
            <mxPoint x="320" y="250" as="targetPoint" />
          </mxGeometry>
        </mxCell>
        <mxCell id="hHq8Q-hBSi6vS6wMJIax-0" value="Declare start,end" style="rounded=0;whiteSpace=wrap;html=1;" vertex="1" parent="mvioNwK95yMqdUQ73LqQ-36">
          <mxGeometry x="260" y="130" width="120" height="60" as="geometry" />
        </mxCell>
        <mxCell id="hHq8Q-hBSi6vS6wMJIax-3" style="edgeStyle=orthogonalEdgeStyle;rounded=0;orthogonalLoop=1;jettySize=auto;html=1;" edge="1" parent="mvioNwK95yMqdUQ73LqQ-36" source="hHq8Q-hBSi6vS6wMJIax-2">
          <mxGeometry relative="1" as="geometry">
            <mxPoint x="320" y="440" as="targetPoint" />
          </mxGeometry>
        </mxCell>
        <mxCell id="hHq8Q-hBSi6vS6wMJIax-2" value="Read start, end" style="shape=parallelogram;perimeter=parallelogramPerimeter;whiteSpace=wrap;html=1;fixedSize=1;" vertex="1" parent="mvioNwK95yMqdUQ73LqQ-36">
          <mxGeometry x="260" y="250" width="120" height="60" as="geometry" />
        </mxCell>
        <mxCell id="hHq8Q-hBSi6vS6wMJIax-5" style="edgeStyle=orthogonalEdgeStyle;rounded=0;orthogonalLoop=1;jettySize=auto;html=1;" edge="1" parent="mvioNwK95yMqdUQ73LqQ-36" source="hHq8Q-hBSi6vS6wMJIax-24">
          <mxGeometry relative="1" as="geometry">
            <mxPoint x="325" y="590" as="targetPoint" />
          </mxGeometry>
        </mxCell>
        <mxCell id="hHq8Q-hBSi6vS6wMJIax-4" value="j = start" style="rounded=0;whiteSpace=wrap;html=1;" vertex="1" parent="mvioNwK95yMqdUQ73LqQ-36">
          <mxGeometry x="265" y="440" width="120" height="60" as="geometry" />
        </mxCell>
        <mxCell id="hHq8Q-hBSi6vS6wMJIax-7" style="edgeStyle=orthogonalEdgeStyle;rounded=0;orthogonalLoop=1;jettySize=auto;html=1;" edge="1" parent="mvioNwK95yMqdUQ73LqQ-36" source="hHq8Q-hBSi6vS6wMJIax-6">
          <mxGeometry relative="1" as="geometry">
            <mxPoint x="325" y="770" as="targetPoint" />
          </mxGeometry>
        </mxCell>
        <mxCell id="hHq8Q-hBSi6vS6wMJIax-32" style="edgeStyle=orthogonalEdgeStyle;rounded=0;orthogonalLoop=1;jettySize=auto;html=1;entryX=0.5;entryY=0;entryDx=0;entryDy=0;" edge="1" parent="mvioNwK95yMqdUQ73LqQ-36" source="hHq8Q-hBSi6vS6wMJIax-6" target="hHq8Q-hBSi6vS6wMJIax-31">
          <mxGeometry relative="1" as="geometry">
            <Array as="points">
              <mxPoint x="610" y="630" />
              <mxPoint x="610" y="1370" />
            </Array>
          </mxGeometry>
        </mxCell>
        <mxCell id="hHq8Q-hBSi6vS6wMJIax-6" value="j &amp;lt;= end ?" style="rhombus;whiteSpace=wrap;html=1;" vertex="1" parent="mvioNwK95yMqdUQ73LqQ-36">
          <mxGeometry x="285" y="590" width="80" height="80" as="geometry" />
        </mxCell>
        <mxCell id="hHq8Q-hBSi6vS6wMJIax-8" value="Yes" style="text;html=1;align=center;verticalAlign=middle;resizable=0;points=[];autosize=1;strokeColor=none;fillColor=none;" vertex="1" parent="mvioNwK95yMqdUQ73LqQ-36">
          <mxGeometry x="265" y="670" width="40" height="30" as="geometry" />
        </mxCell>
        <mxCell id="hHq8Q-hBSi6vS6wMJIax-9" value="No" style="text;html=1;align=center;verticalAlign=middle;resizable=0;points=[];autosize=1;strokeColor=none;fillColor=none;" vertex="1" parent="mvioNwK95yMqdUQ73LqQ-36">
          <mxGeometry x="365" y="580" width="40" height="30" as="geometry" />
        </mxCell>
        <mxCell id="hHq8Q-hBSi6vS6wMJIax-12" style="edgeStyle=orthogonalEdgeStyle;rounded=0;orthogonalLoop=1;jettySize=auto;html=1;" edge="1" parent="mvioNwK95yMqdUQ73LqQ-36" source="hHq8Q-hBSi6vS6wMJIax-10">
          <mxGeometry relative="1" as="geometry">
            <mxPoint x="325" y="940" as="targetPoint" />
          </mxGeometry>
        </mxCell>
        <mxCell id="hHq8Q-hBSi6vS6wMJIax-10" value="i = 1" style="rounded=0;whiteSpace=wrap;html=1;" vertex="1" parent="mvioNwK95yMqdUQ73LqQ-36">
          <mxGeometry x="265" y="770" width="120" height="60" as="geometry" />
        </mxCell>
        <mxCell id="hHq8Q-hBSi6vS6wMJIax-13" style="edgeStyle=orthogonalEdgeStyle;rounded=0;orthogonalLoop=1;jettySize=auto;html=1;" edge="1" parent="mvioNwK95yMqdUQ73LqQ-36" source="hHq8Q-hBSi6vS6wMJIax-11">
          <mxGeometry relative="1" as="geometry">
            <mxPoint x="325" y="1069.9999999999998" as="targetPoint" />
          </mxGeometry>
        </mxCell>
        <mxCell id="hHq8Q-hBSi6vS6wMJIax-26" style="edgeStyle=orthogonalEdgeStyle;rounded=0;orthogonalLoop=1;jettySize=auto;html=1;entryX=0;entryY=0.5;entryDx=0;entryDy=0;" edge="1" parent="mvioNwK95yMqdUQ73LqQ-36" source="hHq8Q-hBSi6vS6wMJIax-11" target="hHq8Q-hBSi6vS6wMJIax-24">
          <mxGeometry relative="1" as="geometry">
            <Array as="points">
              <mxPoint x="170" y="980" />
              <mxPoint x="170" y="550" />
            </Array>
          </mxGeometry>
        </mxCell>
        <mxCell id="hHq8Q-hBSi6vS6wMJIax-11" value="i &amp;lt;= 9 ?" style="rhombus;whiteSpace=wrap;html=1;" vertex="1" parent="mvioNwK95yMqdUQ73LqQ-36">
          <mxGeometry x="285" y="940" width="80" height="80" as="geometry" />
        </mxCell>
        <mxCell id="hHq8Q-hBSi6vS6wMJIax-15" style="edgeStyle=orthogonalEdgeStyle;rounded=0;orthogonalLoop=1;jettySize=auto;html=1;" edge="1" parent="mvioNwK95yMqdUQ73LqQ-36" source="hHq8Q-hBSi6vS6wMJIax-14">
          <mxGeometry relative="1" as="geometry">
            <mxPoint x="326" y="1189.9999999999998" as="targetPoint" />
          </mxGeometry>
        </mxCell>
        <mxCell id="hHq8Q-hBSi6vS6wMJIax-14" value="res = j * i" style="rounded=0;whiteSpace=wrap;html=1;" vertex="1" parent="mvioNwK95yMqdUQ73LqQ-36">
          <mxGeometry x="266" y="1070" width="120" height="60" as="geometry" />
        </mxCell>
        <mxCell id="hHq8Q-hBSi6vS6wMJIax-18" style="edgeStyle=orthogonalEdgeStyle;rounded=0;orthogonalLoop=1;jettySize=auto;html=1;" edge="1" parent="mvioNwK95yMqdUQ73LqQ-36" source="hHq8Q-hBSi6vS6wMJIax-16" target="hHq8Q-hBSi6vS6wMJIax-17">
          <mxGeometry relative="1" as="geometry" />
        </mxCell>
        <mxCell id="hHq8Q-hBSi6vS6wMJIax-16" value="Display j, i, res" style="shape=parallelogram;perimeter=parallelogramPerimeter;whiteSpace=wrap;html=1;fixedSize=1;" vertex="1" parent="mvioNwK95yMqdUQ73LqQ-36">
          <mxGeometry x="260" y="1190" width="120" height="60" as="geometry" />
        </mxCell>
        <mxCell id="hHq8Q-hBSi6vS6wMJIax-22" style="edgeStyle=orthogonalEdgeStyle;rounded=0;orthogonalLoop=1;jettySize=auto;html=1;" edge="1" parent="mvioNwK95yMqdUQ73LqQ-36" source="hHq8Q-hBSi6vS6wMJIax-17">
          <mxGeometry relative="1" as="geometry">
            <mxPoint x="330" y="900" as="targetPoint" />
            <Array as="points">
              <mxPoint x="480" y="900" />
            </Array>
          </mxGeometry>
        </mxCell>
        <mxCell id="hHq8Q-hBSi6vS6wMJIax-17" value="i ++" style="rounded=0;whiteSpace=wrap;html=1;" vertex="1" parent="mvioNwK95yMqdUQ73LqQ-36">
          <mxGeometry x="425" y="1070" width="120" height="60" as="geometry" />
        </mxCell>
        <mxCell id="hHq8Q-hBSi6vS6wMJIax-24" value="" style="ellipse;whiteSpace=wrap;html=1;aspect=fixed;" vertex="1" parent="mvioNwK95yMqdUQ73LqQ-36">
          <mxGeometry x="315" y="540" width="20" height="20" as="geometry" />
        </mxCell>
        <mxCell id="hHq8Q-hBSi6vS6wMJIax-25" value="" style="edgeStyle=orthogonalEdgeStyle;rounded=0;orthogonalLoop=1;jettySize=auto;html=1;" edge="1" parent="mvioNwK95yMqdUQ73LqQ-36" source="hHq8Q-hBSi6vS6wMJIax-4" target="hHq8Q-hBSi6vS6wMJIax-24">
          <mxGeometry relative="1" as="geometry">
            <mxPoint x="-415" y="650" as="targetPoint" />
            <mxPoint x="-415" y="560" as="sourcePoint" />
          </mxGeometry>
        </mxCell>
        <mxCell id="hHq8Q-hBSi6vS6wMJIax-27" value="Yes" style="text;html=1;align=center;verticalAlign=middle;resizable=0;points=[];autosize=1;strokeColor=none;fillColor=none;" vertex="1" parent="mvioNwK95yMqdUQ73LqQ-36">
          <mxGeometry x="275" y="1010" width="40" height="30" as="geometry" />
        </mxCell>
        <mxCell id="hHq8Q-hBSi6vS6wMJIax-28" value="No" style="text;html=1;align=center;verticalAlign=middle;resizable=0;points=[];autosize=1;strokeColor=none;fillColor=none;" vertex="1" parent="mvioNwK95yMqdUQ73LqQ-36">
          <mxGeometry x="255" y="930" width="40" height="30" as="geometry" />
        </mxCell>
        <mxCell id="hHq8Q-hBSi6vS6wMJIax-29" value="j++" style="rounded=0;whiteSpace=wrap;html=1;" vertex="1" parent="mvioNwK95yMqdUQ73LqQ-36">
          <mxGeometry x="110" y="790" width="120" height="60" as="geometry" />
        </mxCell>
        <mxCell id="hHq8Q-hBSi6vS6wMJIax-30" style="edgeStyle=orthogonalEdgeStyle;rounded=0;orthogonalLoop=1;jettySize=auto;html=1;exitX=0.5;exitY=1;exitDx=0;exitDy=0;" edge="1" parent="mvioNwK95yMqdUQ73LqQ-36" source="mvioNwK95yMqdUQ73LqQ-35" target="mvioNwK95yMqdUQ73LqQ-35">
          <mxGeometry relative="1" as="geometry" />
        </mxCell>
        <mxCell id="hHq8Q-hBSi6vS6wMJIax-31" value="&lt;font data-font-src=&quot;https://fonts.googleapis.com/css?family=Sarabun&quot; face=&quot;Sarabun&quot;&gt;End&lt;/font&gt;" style="ellipse;whiteSpace=wrap;html=1;" vertex="1" parent="mvioNwK95yMqdUQ73LqQ-36">
          <mxGeometry x="260" y="1450" width="130" height="30" as="geometry" />
        </mxCell>
      </root>
    </mxGraphModel>
  </diagram>
</mxfile>
